<svg height="512pt" viewBox="0 0 512.00037 512" width="512pt" xmlns="http://www.w3.org/2000/svg"><g fill="#fd982c"><path d="m75.996094 512c-41.902344 0-75.996094-34.105469-75.996094-76.023438 0-41.921874 34.09375-76.023437 75.996094-76.023437 41.90625 0 75.996094 34.101563 75.996094 76.023437 0 41.917969-34.089844 76.023438-75.996094 76.023438zm0 0"/><path d="m510.96875 485.855469h-125.488281l.871093-15.859375c.335938-6.09375.507813-12.207032.507813-18.171875 0-180.105469-146.472656-326.632813-326.515625-326.632813l-.648438.003906-15.0625.03125v-125.1914058l14.996094-.0351562h1.035156c109.808594 0 215.851563 40.289062 298.71875 113.511719 83.761719 74.015625 136.90625 175.84375 149.648438 286.722656 2.710938 23.617187 3.570312 47.582031 2.558594 71.234375zm0 0"/><path d="m341.957031 485.855469h-124.789062l1.8125-16.660157c.628906-5.792968.949219-11.636718.949219-17.371093 0-88.027344-71.589844-159.640625-159.582032-159.640625l-.617187.007812-15.09375.066406v-123.78125l14.980469-.046874c.304687-.003907.617187-.003907.917968-.003907 68.847656 0 135.320313 25.230469 187.285156 71.101563 52.601563 46.433594 85.976563 110.335937 93.972657 179.9375 1.992187 17.355468 2.382812 34.992187 1.152343 52.417968zm0 0"/></g><path d="m75.996094 512c41.90625 0 75.996094-34.105469 75.996094-76.023438 0-20.554687-8.210938-39.21875-21.503907-52.914062l-107.40625 107.40625c13.691407 13.308594 32.355469 21.53125 52.914063 21.53125zm0 0" fill="#fa502e"/><path d="m380.316406 133.230469-88.476562 88.476562c58.695312 59.085938 95.019531 140.433594 95.019531 230.117188 0 5.964843-.171875 12.078125-.507813 18.171875l-.871093 15.859375h125.488281l.617188-14.386719c1.015624-23.652344.15625-47.617188-2.558594-71.234375-11.640625-101.335937-57.042969-195.105469-128.710938-267.003906zm0 0" fill="#fa502e"/><path d="m219.925781 451.824219c0 5.734375-.316406 11.578125-.949219 17.371093l-1.808593 16.660157h124.789062l.984375-13.976563c1.230469-17.421875.84375-35.058594-1.152344-52.414062-7.289062-63.449219-35.675781-122.15625-80.488281-167.21875l-87.464843 87.46875c28.480468 28.847656 46.089843 68.457031 46.089843 112.109375zm0 0" fill="#fa502e"/></svg>